# xmcd
#
# Track frame offsets: 
#        150
#        11142
#        22255
#        36482
#        49110
#        63782
#        77385
#        89245
#        101227
#        113637
#        128517
#        143972
#        158045
#        170325
#
# Disc length: 2459 seconds
#
# Revision: 6
# Processed by: cddbd v1.5.2PL0 Copyright (c) Steve Scherf et al.
# Submitted via: ExactAudioCopy v0.95b2
#
DISCID=b909990e
DTITLE=Ella Fitzgerald and Louis Armstrong and many others - Vocal Duets
DTITLE=With Ella and Louis [CD 2 of 3)
DYEAR=2000
DGENRE=Jazz
TTITLE0=Louis Armstrong and The Mills Brothers - Marie
TTITLE1=Ella Fitzgerald and The Day Dreamers - That Old Feeling
TTITLE2=Louis Armstrong and Jack Teagarden - Rockin' Chair
TTITLE3=Ella Fitzgerald and The Mills Brothers - Big Boy Blue
TTITLE4=Louis Armstrong and Billie Holiday - You Can't Lose A Broken Hea
TTITLE4=rt
TTITLE5=Louis Armstrong and Jack Teagarden - Fifty-Fifty Blues
TTITLE6=Ella Fitzgerald and Louis Jordan - Petootie Pie
TTITLE7=Louis Armstrong and The Mills Brothers - Boog It
TTITLE8=Ella Fitzgerald and The Ink Spots - I'm Beginning To See The Lig
TTITLE8=ht
TTITLE9=Louis Armstrong and Jack Teagarden - Lovely Weather We're Having
TTITLE10=Ella Fitzgerald and The Song Spinners - I'm Confessin' (That I 
TTITLE10=Love You)
TTITLE11=Louis Armstrong and Andy Iona and His Islanders - Hawaiian Hospit
TTITLE11=ality
TTITLE12=Louis Armstrong and The Mills Brothers - My Walking Stick
TTITLE13=Ella Fitzgerald and The Delta Rhythm Boys - (I Love You) For Se
TTITLE13=ntimental Reasons
EXTD=YEAR: 2000
EXTT0=
EXTT1=
EXTT2=
EXTT3=
EXTT4=
EXTT5=
EXTT6=
EXTT7=
EXTT8=
EXTT9=
EXTT10=
EXTT11=
EXTT12=
EXTT13=
PLAYORDER=
